HIERARCHY
ROOT Hips
{
    OFFSET 0.0 0.0 0.0
    CHANNELS 6 Xposition Yposition Zposition Zrotation Xrotation Yrotation
    JOINT Spine
    {
        OFFSET 0.0 5.0 0.0
        CHANNELS 3 Zrotation Xrotation Yrotation
        JOINT Chest
        {
            OFFSET 0.0 5.0 0.0
            CHANNELS 3 Zrotation Xrotation Yrotation
            JOINT Neck
            {
                OFFSET 0.0 5.0 0.0
                CHANNELS 3 Zrotation Xrotation Yrotation
                JOINT Head
                {
                    OFFSET 0.0 3.0 0.0
                    CHANNELS 3 Zrotation Xrotation Yrotation
                    End Site
                    {
                        OFFSET 0.0 3.0 0.0
                    }
                }
            }
            JOINT LeftShoulder
            {
                OFFSET -3.0 4.0 0.0
                CHANNELS 3 Zrotation Xrotation Yrotation
                JOINT LeftUpperArm
                {
                    OFFSET -5.0 0.0 0.0
                    CHANNELS 3 Zrotation Xrotation Yrotation
                    JOINT LeftLowerArm
                    {
                        OFFSET -5.0 0.0 0.0
                        CHANNELS 3 Zrotation Xrotation Yrotation
                        JOINT LeftHand
                        {
                            OFFSET -3.0 0.0 0.0
                            CHANNELS 3 Zrotation Xrotation Yrotation
                            End Site
                            {
                                OFFSET -2.0 0.0 0.0
                            }
                        }
                    }
                }
            }
            JOINT RightShoulder
            {
                OFFSET 3.0 4.0 0.0
                CHANNELS 3 Zrotation Xrotation Yrotation
                JOINT RightUpperArm
                {
                    OFFSET 5.0 0.0 0.0
                    CHANNELS 3 Zrotation Xrotation Yrotation
                    JOINT RightLowerArm
                    {
                        OFFSET 5.0 0.0 0.0
                        CHANNELS 3 Zrotation Xrotation Yrotation
                        JOINT RightHand
                        {
                            OFFSET 3.0 0.0 0.0
                            CHANNELS 3 Zrotation Xrotation Yrotation
                            End Site
                            {
                                OFFSET 2.0 0.0 0.0
                            }
                        }
                    }
                }
            }
        }
    }
    JOINT LeftUpLeg
    {
        OFFSET -3.0 0.0 0.0
        CHANNELS 3 Zrotation Xrotation Yrotation
        JOINT LeftLeg
        {
            OFFSET 0.0 -8.0 0.0
            CHANNELS 3 Zrotation Xrotation Yrotation
            JOINT LeftFoot
            {
                OFFSET 0.0 -8.0 0.0
                CHANNELS 3 Zrotation Xrotation Yrotation
                End Site
                {
                    OFFSET 0.0 -2.0 2.0
                }
            }
        }
    }
    JOINT RightUpLeg
    {
        OFFSET 3.0 0.0 0.0
        CHANNELS 3 Zrotation Xrotation Yrotation
        JOINT RightLeg
        {
            OFFSET 0.0 -8.0 0.0
            CHANNELS 3 Zrotation Xrotation Yrotation
            JOINT RightFoot
            {
                OFFSET 0.0 -8.0 0.0
                CHANNELS 3 Zrotation Xrotation Yrotation
                End Site
                {
                    OFFSET 0.0 -2.0 2.0
                }
            }
        }
    }
}

MOTION
Frames: 19
Frame Time: 0.03333333333333333
38.726141 41.336238 0.001937 -171.371479 -6.111958 -35.209064 -171.371479 -6.111958 -35.209064 -174.185253 -7.990771 -54.040950 0.000000 0.000000 0.000000 0.000000 -154.985686 179.904812 0.000000 0.000000 0.000000 76.281537 72.500114 37.748458 103.004768 148.999342 -172.099190 0.000000 0.000000 0.000000 0.000000 0.000000 0.000000 102.252868 52.593683 -15.853831 98.924252 133.861743 -170.720103 0.000000 0.000000 0.000000 92.661833 85.992783 -33.570391 91.489581 57.192492 -2.309980 0.000000 0.000000 0.000000 89.803921 56.245722 0.293404 87.305100 27.949765 1.430632 0.000000 0.000000 0.000000
39.040197 41.443406 -0.000419 -173.144285 -8.435642 -50.968315 -173.144285 -8.435642 -50.968315 -173.677411 -13.930482 -65.929532 0.000000 0.000000 0.000000 0.000000 -155.514548 179.944933 0.000000 0.000000 0.000000 77.434305 63.011107 23.637626 90.592227 137.262821 -179.452794 0.000000 0.000000 0.000000 0.000000 0.000000 0.000000 103.097157 55.744475 -18.861644 98.835924 127.755632 -168.650074 0.000000 0.000000 0.000000 89.714478 72.257682 0.892318 89.808275 38.865639 0.154513 0.000000 0.000000 0.000000 89.225023 70.176972 2.148993 89.224548 35.140650 0.545836 0.000000 0.000000 0.000000
39.271457 41.573744 0.000830 -174.678924 -8.617119 -58.424879 -174.678924 -8.617119 -58.424879 -175.331414 -10.001436 -65.152746 0.000000 0.000000 0.000000 0.000000 -154.800679 179.640046 0.000000 0.000000 0.000000 77.424549 70.095584 31.636978 88.132956 137.747138 178.303821 0.000000 0.000000 0.000000 0.000000 0.000000 0.000000 103.303293 58.186876 -20.864891 98.926832 127.999569 -168.632189 0.000000 0.000000 0.000000 88.550896 68.334725 3.643729 88.950577 38.453213 0.833385 0.000000 0.000000 0.000000 89.244927 69.988018 2.072412 89.717797 37.013594 0.212761 0.000000 0.000000 0.000000
39.959247 42.185450 0.001420 -176.201133 -9.839174 -69.050429 -176.201133 -9.839174 -69.050429 -174.861333 -25.855894 -79.487617 0.000000 0.000000 0.000000 0.000000 -154.853284 177.460759 0.000000 0.000000 0.000000 80.153237 68.132682 23.387670 86.705108 130.591971 176.156225 0.000000 0.000000 0.000000 0.000000 0.000000 0.000000 101.935813 65.404739 -24.787865 96.736124 125.034861 -170.437539 0.000000 0.000000 0.000000 87.144422 73.897908 9.803424 85.749584 42.639123 3.914909 0.000000 0.000000 0.000000 89.792084 73.722943 0.712042 89.719395 35.936183 0.203395 0.000000 0.000000 0.000000
41.642098 42.436935 0.000777 -173.918166 -10.683229 -60.542321 -173.918166 -10.683229 -60.542321 -172.031844 -23.247660 -71.952563 0.000000 0.000000 0.000000 0.000000 -151.746369 177.899589 0.000000 0.000000 0.000000 83.356567 71.703857 19.405269 89.237603 129.162960 179.064002 0.000000 0.000000 0.000000 0.000000 0.000000 0.000000 103.703274 64.891597 -27.489391 90.425701 125.881215 -179.411522 0.000000 0.000000 0.000000 89.166764 76.301471 3.414644 87.677029 42.668617 2.141398 0.000000 0.000000 0.000000 93.339493 72.213957 -10.309110 94.341759 36.151252 -3.174850 0.000000 0.000000 0.000000
42.282653 42.407788 0.001221 -172.956872 -9.884139 -54.661035 -172.956872 -9.884139 -54.661035 -172.147432 -20.980385 -70.218571 0.000000 0.000000 0.000000 0.000000 -151.882734 177.814332 0.000000 0.000000 0.000000 84.644426 75.027047 19.316844 90.491799 130.212312 -179.418293 0.000000 0.000000 0.000000 0.000000 0.000000 0.000000 105.528401 68.653568 -35.411575 88.592786 124.276059 177.935727 0.000000 0.000000 0.000000 89.774525 77.640003 1.028840 88.908081 43.736191 1.044792 0.000000 0.000000 0.000000 94.069464 73.539481 -13.538600 96.985495 39.264491 -5.719722 0.000000 0.000000 0.000000
43.343462 42.377971 0.002079 -171.876882 -17.638237 -65.824165 -171.876882 -17.638237 -65.824165 -169.590986 -40.118746 -77.701800 0.000000 0.000000 0.000000 0.000000 -153.093362 177.268872 0.000000 0.000000 0.000000 82.708977 72.057774 21.560239 93.075002 130.565652 -176.409233 0.000000 0.000000 0.000000 0.000000 0.000000 0.000000 106.052383 71.445689 -40.604773 86.095012 128.231763 175.047980 0.000000 0.000000 0.000000 91.389498 71.779941 -4.214411 90.533717 45.198912 -0.537436 0.000000 0.000000 0.000000 96.461281 74.698411 -22.486192 99.162532 43.411852 -8.675898 0.000000 0.000000 0.000000
43.731254 42.432943 0.000066 -170.383643 -65.765445 -85.638599 -170.383643 -65.765445 -85.638599 -169.035304 -127.658786 -98.503728 0.000000 0.000000 0.000000 0.000000 -152.868003 176.417336 0.000000 0.000000 0.000000 81.326664 66.230929 19.104690 92.527231 129.443276 -176.928982 0.000000 0.000000 0.000000 0.000000 0.000000 0.000000 105.787631 76.956967 -50.670791 85.918100 127.596228 174.704962 0.000000 0.000000 0.000000 91.271411 74.161500 -4.473198 91.231734 45.086957 -1.235477 0.000000 0.000000 0.000000 97.294303 76.603538 -28.255493 99.662587 41.907802 -8.688071 0.000000 0.000000 0.000000
44.228821 42.593022 -0.000133 -168.545987 -66.905860 -85.061976 -168.545987 -66.905860 -85.061976 -167.776367 -120.254064 -97.201782 0.000000 0.000000 0.000000 0.000000 -152.793996 176.978326 0.000000 0.000000 0.000000 80.904342 65.383997 19.260580 88.290753 127.352635 177.761040 0.000000 0.000000 0.000000 0.000000 0.000000 0.000000 106.270282 80.413627 -59.942802 87.360445 131.922439 177.060983 0.000000 0.000000 0.000000 92.238085 73.758941 -7.641265 92.718268 46.456595 -2.859885 0.000000 0.000000 0.000000 96.700581 74.129568 -22.452251 97.700719 41.440318 -6.807751 0.000000 0.000000 0.000000
44.403982 42.616957 -0.000290 -168.254974 -62.615331 -83.852961 -168.254974 -62.615331 -83.852961 -166.400219 -125.178176 -99.676934 0.000000 0.000000 0.000000 0.000000 -152.154161 177.797042 0.000000 0.000000 0.000000 79.765401 65.865504 21.948337 86.605308 130.492522 176.026002 0.000000 0.000000 0.000000 0.000000 0.000000 0.000000 107.646611 67.627148 -37.698367 90.610324 130.926007 -179.296078 0.000000 0.000000 0.000000 93.488324 76.577827 -14.329043 92.630860 46.250059 -2.748062 0.000000 0.000000 0.000000 95.492538 79.613470 -27.682232 97.831955 41.495166 -6.937324 0.000000 0.000000 0.000000
44.618841 41.944258 0.003145 -164.466133 -146.596078 -112.854815 -164.466133 -146.596078 -112.854815 -163.922527 -139.038241 -108.365863 0.000000 0.000000 0.000000 0.000000 -156.760014 178.083380 0.000000 0.000000 0.000000 74.491726 56.415220 22.679165 66.129328 151.871688 166.690320 0.000000 0.000000 0.000000 0.000000 0.000000 0.000000 118.083978 64.955823 -48.792517 106.729394 151.220251 -170.624844 0.000000 0.000000 0.000000 95.230540 92.205994 -112.820791 92.714107 50.832458 -3.330414 0.000000 0.000000 0.000000 90.217033 99.100128 -178.645283 97.718159 47.893777 -8.528474 0.000000 0.000000 0.000000
44.833088 41.862105 0.004503 -164.132804 -103.649465 -93.948542 -164.132804 -103.649465 -93.948542 -162.663292 -63.092385 -80.997779 0.000000 0.000000 0.000000 0.000000 -156.992113 178.486231 0.000000 0.000000 0.000000 70.873604 54.298140 25.761312 50.353966 171.112301 172.616915 0.000000 0.000000 0.000000 0.000000 0.000000 0.000000 124.205656 25.938475 -18.295437 127.602410 88.090610 -87.521451 0.000000 0.000000 0.000000 95.506310 90.641843 -96.628652 93.173084 51.769159 -4.025295 0.000000 0.000000 0.000000 91.461140 105.336060 -174.686280 96.453740 51.853846 -8.195690 0.000000 0.000000 0.000000
45.066673 41.885480 0.002979 -164.999003 -75.760577 -86.109733 -164.999003 -75.760577 -86.109733 -163.171510 -50.292415 -75.900404 0.000000 0.000000 0.000000 0.000000 -155.337217 178.557217 0.000000 0.000000 0.000000 46.484673 164.081323 164.847755 -37.191746 -174.767956 173.119018 0.000000 0.000000 0.000000 0.000000 0.000000 0.000000 170.444166 176.086399 -157.884221 -153.178717 -174.244013 -168.724970 0.000000 0.000000 0.000000 94.771940 87.983629 -67.132706 92.828865 50.322840 -3.408895 0.000000 0.000000 0.000000 92.246487 98.960429 -166.028906 96.391944 54.904099 -9.057902 0.000000 0.000000 0.000000
45.258711 41.622910 0.003901 -166.704280 -35.314543 -71.552611 -166.704280 -35.314543 -71.552611 -164.743634 -37.891314 -70.685801 0.000000 0.000000 0.000000 0.000000 -155.256933 178.711112 0.000000 0.000000 0.000000 25.443016 170.657986 160.925351 -51.466153 -169.644633 171.720113 0.000000 0.000000 0.000000 0.000000 0.000000 0.000000 -165.144524 -172.041604 -152.208229 -141.997835 -168.716018 -165.674783 0.000000 0.000000 0.000000 94.453498 92.301357 -117.293241 93.429383 58.378951 -5.558949 0.000000 0.000000 0.000000 93.017886 103.904667 -167.977858 95.429742 58.102431 -8.683187 0.000000 0.000000 0.000000
45.449010 41.238718 0.004671 -170.244614 -23.970344 -68.858732 -170.244614 -23.970344 -68.858732 -163.763822 -55.110975 -78.521080 0.000000 0.000000 0.000000 0.000000 -154.582742 177.892882 0.000000 0.000000 0.000000 -18.300084 -161.281994 134.305895 -70.858651 -141.920330 164.786123 0.000000 0.000000 0.000000 0.000000 0.000000 0.000000 -135.824098 -100.310798 -100.024393 -111.312487 -129.530818 -154.697415 0.000000 0.000000 0.000000 94.735246 98.276972 -150.342355 93.926809 54.233152 -5.443415 0.000000 0.000000 0.000000 92.138216 98.325708 -165.687499 95.605288 55.295509 -8.065919 0.000000 0.000000 0.000000
45.355622 41.211212 0.003289 -170.586872 -126.458347 -96.983235 -170.586872 -126.458347 -96.983235 -163.353193 -115.307414 -98.047440 0.000000 0.000000 0.000000 0.000000 -156.579137 177.263726 0.000000 0.000000 0.000000 -26.524860 -127.988735 111.295836 -74.734163 -135.399782 164.936048 0.000000 0.000000 0.000000 0.000000 0.000000 0.000000 -134.276116 -92.173585 -92.229158 -109.133822 -122.373366 -151.310066 0.000000 0.000000 0.000000 94.349085 97.478076 -149.912635 94.241246 48.271786 -4.753324 0.000000 0.000000 0.000000 92.369584 97.772495 -163.134355 96.208039 50.167555 -7.429879 0.000000 0.000000 0.000000
45.205316 40.972744 0.004143 -167.988393 -34.998032 -73.096664 -167.988393 -34.998032 -73.096664 -161.329770 -40.433935 -68.368814 0.000000 0.000000 0.000000 0.000000 -155.813086 177.670541 0.000000 0.000000 0.000000 -35.496013 -138.311755 128.687589 -80.518806 -131.415450 169.279239 0.000000 0.000000 0.000000 0.000000 0.000000 0.000000 -130.324491 -93.282949 -93.866128 -102.480968 -124.158346 -161.933109 0.000000 0.000000 0.000000 93.789722 92.021351 -118.049590 94.023397 51.898454 -5.125676 0.000000 0.000000 0.000000 92.369136 97.680320 -162.944326 95.486825 49.982749 -6.526620 0.000000 0.000000 0.000000
45.165630 41.057901 0.003737 -168.553017 -31.690330 -71.841482 -168.553017 -31.690330 -71.841482 -160.474494 -51.290556 -74.134856 0.000000 0.000000 0.000000 0.000000 -157.345052 177.066364 0.000000 0.000000 0.000000 -36.632436 -135.123287 126.750574 -81.630683 -132.118416 170.758070 0.000000 0.000000 0.000000 0.000000 0.000000 0.000000 -131.313686 -93.390233 -93.855839 -100.612861 -124.433013 -164.713297 0.000000 0.000000 0.000000 93.670230 90.794179 -102.194200 93.834750 47.433127 -4.173947 0.000000 0.000000 0.000000 92.545857 96.671125 -159.185825 95.438550 47.662502 -5.965379 0.000000 0.000000 0.000000
45.139959 41.132818 0.003858 -167.977773 -32.880234 -71.766134 -167.977773 -32.880234 -71.766134 -159.797544 -43.012348 -68.473909 0.000000 0.000000 0.000000 0.000000 -157.695938 177.215461 0.000000 0.000000 0.000000 -35.032920 -138.465792 128.360072 -81.080408 -133.377291 170.569397 0.000000 0.000000 0.000000 0.000000 0.000000 0.000000 -132.844437 -86.297430 -86.008705 -100.123849 -122.528849 -164.359531 0.000000 0.000000 0.000000 93.863673 90.394561 -95.822187 93.316291 43.549031 -3.152780 0.000000 0.000000 0.000000 92.437775 94.697568 -152.611627 94.922892 48.168999 -5.496613 0.000000 0.000000 0.000000
